<svg xmlns="http://www.w3.org/2000/svg" viewBox="0 0 24 24">
    <path d="M14.13,9.69v3.17A.14.14,0,0,1,14,13h-.51a.17.17,0,0,1-.12-.05l-1.45-2v1.89a.14.14,0,0,1-.14.14h-.51a.15.15,0,0,1-.15-.14V9.69a.15.15,0,0,1,.15-.14h.5a.13.13,0,0,1,.12.06l1.45,2V9.69a.15.15,0,0,1,.15-.14H14a.13.13,0,0,1,.15.14Zm-3.66-.15H10a.15.15,0,0,0-.14.15v3.17A.14.14,0,0,0,10,13h.51a.14.14,0,0,0,.14-.14V9.69a.15.15,0,0,0-.14-.15ZM9.24,12.21H7.86V9.69a.15.15,0,0,0-.15-.15H7.2a.15.15,0,0,0-.14.15v3.17a.13.13,0,0,0,0,.1.18.18,0,0,0,.1,0h2a.14.14,0,0,0,.14-.14v-.51a.14.14,0,0,0-.14-.14Zm7.57-2.67h-2a.15.15,0,0,0-.14.15v3.17a.14.14,0,0,0,.14.14h2a.14.14,0,0,0,.14-.14v-.51a.14.14,0,0,0-.14-.14H15.42v-.54h1.39a.14.14,0,0,0,.14-.14V11a.14.14,0,0,0-.14-.14H15.42v-.54h1.39A.14.14,0,0,0,17,10.2V9.69a.15.15,0,0,0-.14-.15ZM22,5.65V18.38A3.64,3.64,0,0,1,18.34,22H5.6A3.64,3.64,0,0,1,2,18.35V5.62A3.65,3.65,0,0,1,5.63,2H18.37A3.62,3.62,0,0,1,22,5.65Zm-2.75,5.47C19.23,7.86,16,5.21,12,5.21S4.67,7.86,4.67,11.12c0,2.92,2.59,5.37,6.09,5.83.85.18.76.5.56,1.64,0,.19-.14.72.63.4a23.56,23.56,0,0,0,5.73-4.23A5.29,5.29,0,0,0,19.23,11.12Z" />
</svg>
